**ABCDEFGHIJKLMNOPQRSTUVWXYZabcdefghijklmnopqrstuvwxyz**************************
**PARASOLID !"#$%&'()*+,-./:;<=>?@[\]^_`{|}~0123456789**************************
**PART1;
MC=unknown;
MC_MODEL=unknown;
MC_ID=unknown;
OS=iOS;
OS_RELEASE=unknown;
FRU=Shapr3D Zrt.;
APPL=Shapr3D;
SITE=Budapest, Hungary;
USER=unknown;
FORMAT=text;
GUISE=transmit;
KEY=/var/folders/dv/lf7jknvd74g0kjcscs865j080000gn/T/com.shapr3d.shapr/export/temp_export;
FILE=/var/folders/dv/lf7jknvd74g0kjcscs865j080000gn/T/com.shapr3d.shapr/export/temp_export;
DATE=2023-04-05 13:10 (UTC);
**PART2;
SCH=SCH_3500224_35002;
USFLD_SIZE=16;
**PART3;
**END_OF_HEADER*****************************************************************
T51 : TRANSMIT FILE created by modeller version 350022423 SCH_3500224_35002_1300
6231 0 10 21 CCCCI7 lattice222 0 CCCI4 mesh1006 0 I8 polyline1008 0 CCCCCCCCCCA1
6 mesh_offset_data206 0 Z1 4 2 3 0 0 0 0 0 0 0 0 1e3 1e-8 0 0 0 1 0 1 4 0 81 255
 1 2 2 5 1 6 0 0 0 7 70 11 CI9 list_type0 0 1 uI10 notransmit0 0 1 lCCCDCCDI12 f
inger_index0 0 1 dI12 finger_block1012 0 CZ3 0 4 T1 0 0 2 20 1 8 8 11 255 4 4 0
 1 9 0 1 10 0 0 0 12 36 CCCI7 lattice222 0 CCCI4 mesh1006 0 I8 polyline1008 0 CC
CCCCCDI5 owner1040 0 CCCI16 boundary_lattice222 0 CCCI13 boundary_mesh1006 0 I17
 boundary_polyline1008 0 CCCA16 index_map_offset0 0 1 dA9 index_map82 0 A17 node
_id_index_map82 0 A20 schema_embedding_map82 0 A5 child12 0 A14 lowest_node_id0
 0 1 dA16 mesh_offset_data206 0 Z9 94 11 12 0 0 0 0 0 0 0 1e3 1e-8 4 0 13 1 0 1
 1 14 0 15 16 0 0 0 17 18 0 0 0 0 0 0 0 0 11 10 3 0 1 13 0 1 0 4 0 0 12 13 94 19
 20 0 0 0 0 0 0 0 1e3 1e-8 10 9 0 1 0 1 1 21 0 22 23 0 0 0 24 25 0 0 0 0 0 0 0 0
 81 1 19 86 5 13 26 0 0 0 27 70 20 0 4 T13 0 0 4 20 1 28 28 13 255 21 33 0 13 0
 29 0 0 30 0 51 255 22 32 0 29 31 0 0 -0 4286263797015735e-34 .045 0 0 -1 .007 -
1 0 0 31 255 23 49 0 32 33 0 0 +0 3567065927131195e-35 0 0 0 1 1 0 0 .0065 19 9
 CCCCCCI5 frame230 0 CA5 owner12 0 Z24 8 0 13 30 0 34 0 V0 16 255 25 5 0 ?35 0 3
6 37 0 0 13 17 255 35 0 38 35 35 0 39 25 0 0 +16 36 23 0 ?40 25 32 33 0 0 13 31
 37 7 0 25 41 33 0 +0 4286263797015735e-34 .045 0 0 1 1 0 0 .007 31 41 81 0 42 0
 37 0 +0 3567065927131195e-35 .045 0 0 1 1 0 0 .0065 31 33 27 0 36 37 23 0 +0 42
86263797015735e-34 0 0 0 1 1 0 0 .007 16 42 61 0 ?43 32 0 41 0 0 13 17 43 0 44 4
3 43 0 45 42 0 0 +16 32 59 0 ?46 36 42 23 0 0 13 17 46 0 47 46 46 0 48 32 0 0 +1
5 255 47 47 0 46 49 50 17 48 0 51 48 48 0 46 32 0 0 -15 51 65 0 48 52 0 14 255 5
2 66 53 ?0 49 44 21 54 -0 0 0 49 34 81 1 53 94 55 52 56 0 57 0 58 14 49 19 57 ?5
2 59 47 21 31 -0 0 52 59 34 15 44 64 0 43 52 51 51 54 78 0 52 0 60 0 +0 35670659
27131195e-35 -.001 0 0 1 .0065 1 0 0 13 34 9 0 0 0 0 0 0 24 29 14 29 29 61 ?59 0
 62 21 22 -0 0 59 0 34 81 1 61 88 55 29 63 0 0 64 65 14 59 1 64 ?49 29 66 21 60
 +0 0 49 29 34 15 62 28 0 39 29 67 17 39 0 62 39 39 0 35 25 0 0 -15 67 30 0 40 2
9 0 17 40 0 67 40 40 0 68 36 0 0 +17 68 0 50 68 68 0 40 36 0 0 -15 50 22 0 68 49
 0 81 1 64 90 55 59 69 0 61 57 70 15 66 54 0 45 59 38 50 255 60 3 0 59 54 31 0 +
0 0 .045 0 0 1 1 0 0 50 31 26 0 49 60 22 0 +0 0 0 0 0 1 1 0 0 17 45 0 66 45 45 0
 43 42 0 0 -15 38 4 0 35 59 0 80 7 CCCCCDI12 legal_owners0 16 1 lCZ1 55 71 72 80
15 0 0 0 0 3 5 0 0 0 FFFFTFFFFFFFFFFF2 81 1 69 89 73 59 0 64 63 74 75 81 1 57 92
 55 49 74 0 64 53 76 83 255 1 70 0 81 1 74 91 73 49 0 57 69 56 77 83 1 76 0 80 1
 73 0 78 8001 0 0 0 0 3 5 0 0 0 FFFFTFTFFFFFFFFF2 81 1 56 93 73 52 0 53 74 0 79
 83 3 77 .494117647058824 .494117647058824 .525490196078431 83 3 79 .49411764705
8824 .494117647058824 .525490196078431 79 255 15 78 SDL/TYSA_COLOUR81 1 63 87 73
 29 0 61 0 69 80 83 3 75 .494117647058824 .494117647058824 .525490196078431 83 3
 80 .494117647058824 .494117647058824 .525490196078431 79 21 72 SDL/TYSA_TRANSLU
CENCY83 1 65 0 83 1 58 0 19 30 34 0 13 0 24 21 0 S0 74 4 CI16 index_map_offset0
 0 1 dCCZ20 28 4 0 0 26 19 56 53 0 0 0 0 0 0 0 0 0 0 0 0 0 0 0 0 81 1 26 85 81 1
3 0 19 0 0 82 80 1 81 83 84 8017 0 0 0 0 0 0 0 0 0 TTTTTTTTTTTTTFTF3 84 255 7 82
 Body 0179 13 84 SDL/TYSA_NAME80 1 5 81 85 8038 0 0 0 0 0 0 0 0 0 TTTTTTTTTTTTTF
TF10 98 255 7 27 66 111 100 121 32 48 49 79 14 85 SDL/TYSA_UNAME81 1 11 86 5 9 8
6 0 0 0 87 70 12 0 4 T9 0 0 4 20 1 88 88 13 14 33 0 9 0 89 0 0 90 0 51 15 32 0 8
9 91 0 0 -0 2755455298081545e-34 .045 0 0 -1 .0045 -1 0 0 31 16 49 0 92 93 0 0 +
0 188751509164731e-33 0 0 0 1 1 0 0 .004 19 17 8 0 9 90 0 94 0 V0 16 18 5 0 ?95
 0 96 97 0 0 9 17 95 0 98 95 95 0 99 18 0 0 +16 96 23 0 ?100 18 92 93 0 0 9 31 9
7 7 0 18 101 93 0 +0 2755455298081545e-34 .045 0 0 1 1 0 0 .0045 31 101 81 0 102
 0 97 0 +0 188751509164731e-33 .045 0 0 1 1 0 0 .004 31 93 27 0 96 97 16 0 +0 27
55455298081545e-34 0 0 0 1 1 0 0 .0045 16 102 61 0 ?103 92 0 101 0 0 9 17 103 0
 104 103 103 0 105 102 0 0 +16 92 59 0 ?106 96 102 16 0 0 9 17 106 0 107 106 106
 0 108 92 0 0 +15 107 47 0 106 109 110 17 108 0 111 108 108 0 106 92 0 0 -15 111
 65 0 108 112 0 14 112 66 113 ?0 109 104 14 114 -0 0 0 109 94 81 1 113 94 55 112
 115 0 116 0 117 14 109 19 116 ?112 118 107 14 91 -0 0 112 118 94 15 104 64 0 10
3 112 111 51 114 78 0 112 0 119 0 +0 188751509164731e-33 -.062 0 0 1 .004 1 0 0
 13 94 9 0 0 0 0 0 0 17 89 14 89 29 120 ?118 0 121 14 15 -0 0 118 0 94 81 1 120
 88 55 89 122 0 0 123 124 14 118 1 123 ?109 89 125 14 119 +0 0 109 89 94 15 121
 28 0 99 89 126 17 99 0 121 99 99 0 95 18 0 0 -15 126 30 0 100 89 0 17 100 0 126
 100 100 0 127 96 0 0 +17 127 0 110 127 127 0 100 96 0 0 -15 110 22 0 127 109 0
 81 1 123 90 55 118 128 0 120 116 129 15 125 54 0 105 118 98 50 119 3 0 118 114
 91 0 +0 0 .045 0 0 1 1 0 0 50 91 26 0 109 119 15 0 +0 0 0 0 0 1 1 0 0 17 105 0
 125 105 105 0 103 102 0 0 -15 98 4 0 95 118 0 81 1 128 89 73 118 0 123 122 130
 131 81 1 116 92 55 109 130 0 123 113 132 83 1 129 0 81 1 130 91 73 109 0 116 12
8 115 133 83 1 132 0 81 1 115 93 73 112 0 113 130 0 134 83 3 133 .49411764705882
4 .494117647058824 .525490196078431 83 3 134 .494117647058824 .494117647058824 .
525490196078431 81 1 122 87 73 89 0 120 0 128 135 83 3 131 .494117647058824 .494
117647058824 .525490196078431 83 3 135 .494117647058824 .494117647058824 .525490
196078431 83 1 124 0 83 1 117 0 19 90 34 0 9 0 17 14 0 S0 74 20 88 4 0 0 86 11 1
15 113 0 0 0 0 0 0 0 0 0 0 0 0 0 0 0 0 81 1 86 85 81 9 0 11 0 0 136 84 7 136 Bod
y 0298 7 87 66 111 100 121 32 48 50 74 20 8 2 0 0 6 2 0 0 0 0 0 0 0 0 0 0 0 0 0
 0 0 0 0 0 81 1 6 1 81 1 0 2 0 0 137 84 4 137 root98 4 7 114 111 111 116 1 0 
